# xmcd CD database file
#
# Track frame offsets:
#	150
#	40306
#	51542
#	110028
#	132387
#	146974
#	157329
#	181959
#	196804
#	210202
#	222135
#	237297
#	252305
#	266394
#	279954
#	293793
#	307403
#	322025
#	339022
#
# Disc length: 4645 seconds
#
# Revision: 0
# Processed by: cddbd v1.5.2PL0 Copyright (c) Steve Scherf et al.
# Submitted via: CDex 1.70beta2
#
DISCID=30122313
DTITLE=l'histoire du saxophone jazz CD4 - Various
DYEAR=1977
DGENRE=Jazz
TTITLE0=Jackie McLean - Dr. Jackle
TTITLE1=Johnny Hodges - Pretty Little Girl
TTITLE2=Jackie McLean - Lights Out
TTITLE3=Hal McKusick - Lydian Lullaby
TTITLE4=Gene Quill - Phil Woods
TTITLE5=Julian "Cannonball" Adderley - Happin' John
TTITLE6=Zoot Sims - Woody'n You
TTITLE7=Coleman Hawkins - The Stampede
TTITLE8=Bud  Freeman - Crazeology
TTITLE9=Barney Bigard - Hot Feet
TTITLE10=Prince Robinson - I've Found A New Baby
TTITLE11=Coleman Hawkins - Hello Lola
TTITLE12=Coleman Hawkins - Lost In A Fog
TTITLE13=Dick Wilson - Lotta Sax Appeal
TTITLE14=Chu Berry - Christopher Columbus
TTITLE15=Lester Young - Shoe Shine Boy
TTITLE16=Herschel Evans - Blue And Sentimental
TTITLE17=Gene Sedric - Honeysuckle Rose
TTITLE18=Chu Berry - Sittin' In
EXTD=YEAR: 1977
EXTT0=
EXTT1=
EXTT2=
EXTT3=
EXTT4=
EXTT5=
EXTT6=
EXTT7=
EXTT8=
EXTT9=
EXTT10=
EXTT11=
EXTT12=
EXTT13=
EXTT14=
EXTT15=
EXTT16=
EXTT17=
EXTT18=
PLAYORDER=
